# xmcd
#
# Track frame offsets:
# 150
# 12129
# 27466
# 37283
# 51631
# 80507
# 97848
# 108403
# 121919
# 132171
# 148423
# 158875
# 168833
#
# Disc length: 2385 seconds
#
# Revision: 4
# Processed by: cddbd v1.5.2PL0 Copyright (c) Steve Scherf et al.
# Submitted via: Axialis_AX_CDPlayer 2.6
#
DISCID=b1094f0d
DTITLE=The Beatles - Yellow Submarine (2009 Stereo Remaster)
DYEAR=2009
DGENRE=Rock
TTITLE0=Yellow Submarine
TTITLE1=Only A Northern Song
TTITLE2=All Together Now
TTITLE3=Hey Bulldog
TTITLE4=It's All Too Much
TTITLE5=All You Need Is Love
TTITLE6=Pepperland
TTITLE7=Sea Of Time
TTITLE8=Sea Of Holes
TTITLE9=Sea Of Monsters
TTITLE10=March Of The Meanies
TTITLE11=Pepperland Laid Waste
TTITLE12=Yellow Submarine In Pepperland
EXTD=
EXTT0=
EXTT1=
EXTT2=
EXTT3=
EXTT4=
EXTT5=
EXTT6=
EXTT7=
EXTT8=
EXTT9=
EXTT10=
EXTT11=
EXTT12=
PLAYORDER=
